<svg width="385" height="49" viewBox="0 0 385 49" fill="none" xmlns="http://www.w3.org/2000/svg">
<path d="M72.2064 18.679H65.0661V48.0444H59.4146V18.679H55.0089V14.0279H59.4146V11.596C59.4146 7.79611 60.3869 4.99941 62.3619 3.23626C64.3368 1.47312 67.4664 0.591553 71.8114 0.591553V5.3034C69.3199 5.3034 67.588 5.78978 66.5549 6.76255C65.5522 7.73531 65.0357 9.34646 65.0357 11.5656V13.9975H72.176V18.6486L72.2064 18.679Z" fill="#586FCC"/>
<path d="M82.0813 2.11145V48.0443H76.4298V2.11145H82.0813Z" fill="#586FCC"/>
<path d="M119.427 33.1489H119.454L119.424 33.1793L119.427 33.1489Z" fill="#586FCC"/>
<path fill-rule="evenodd" clip-rule="evenodd" d="M119.606 29.7746C119.606 30.8294 119.546 31.9739 119.427 33.1489H92.2904C92.5031 36.4927 93.6577 39.1071 95.7239 40.9918C97.8204 42.8765 100.342 43.8189 103.32 43.8189C105.751 43.8189 107.786 43.2413 109.427 42.1166C111.068 40.9918 112.223 39.4718 112.861 37.5567H118.937C118.026 40.8398 116.203 43.4845 113.468 45.5212C110.734 47.558 107.361 48.5915 103.29 48.5915C100.069 48.5915 97.1823 47.862 94.63 46.4332C92.0777 44.9741 90.1028 42.9373 88.6443 40.2622C87.1859 37.5871 86.487 34.5168 86.487 30.9905C86.487 27.4642 87.1859 24.3939 88.5835 21.7492C89.9812 19.1045 91.9562 17.0678 94.5085 15.639C97.0608 14.2103 99.9777 13.5111 103.29 13.5111C106.601 13.5111 109.366 14.2103 111.858 15.6086C114.349 17.007 116.264 18.9525 117.601 21.4148C118.937 23.8772 119.606 26.6435 119.606 29.7746ZM108.485 19.4693C110.126 20.2597 111.433 21.4452 112.374 22.9956H112.344C113.286 24.5459 113.772 26.4003 113.772 28.5586H92.3208C92.5943 25.3363 93.7489 22.8132 95.7542 20.9893C97.7596 19.1653 100.19 18.2534 103.046 18.2534C105.052 18.2534 106.844 18.6789 108.485 19.4693Z" fill="#586FCC"/>
<path fill-rule="evenodd" clip-rule="evenodd" d="M156.189 33.1489H156.161C156.281 31.9739 156.341 30.8294 156.341 29.7746C156.341 26.6435 155.672 23.8772 154.335 21.4148C152.998 18.9525 151.084 17.007 148.593 15.6086C146.101 14.2103 143.336 13.5111 140.024 13.5111C136.712 13.5111 133.795 14.2103 131.243 15.639C128.691 17.0678 126.716 19.1045 125.318 21.7492C123.921 24.3939 123.222 27.4642 123.222 30.9905C123.222 34.5168 123.921 37.5871 125.379 40.2622C126.837 42.9373 128.812 44.9741 131.365 46.4332C133.917 47.862 136.803 48.5915 140.024 48.5915C144.096 48.5915 147.468 47.558 150.203 45.5212C152.938 43.4845 154.761 40.8398 155.672 37.5567H149.595C148.957 39.4718 147.803 40.9918 146.162 42.1166C144.521 43.2413 142.485 43.8189 140.055 43.8189C137.077 43.8189 134.555 42.8765 132.459 40.9918C130.392 39.1071 129.238 36.4927 129.025 33.1489H156.161L156.158 33.1793L156.189 33.1489ZM149.109 22.9956C148.167 21.4452 146.861 20.2597 145.22 19.4693C143.579 18.6789 141.786 18.2534 139.781 18.2534C136.925 18.2534 134.494 19.1653 132.489 20.9893C130.484 22.8132 129.329 25.3363 129.055 28.5586H150.507C150.507 26.4003 150.021 24.5459 149.079 22.9956H149.109Z" fill="#586FCC"/>
<path d="M166.853 38.7118V18.6789H175.726V14.0278H166.853V5.45532H161.202V14.0278H156.796V18.6789H161.202V38.7118C161.202 42.0253 161.992 44.3964 163.572 45.8556C165.152 47.2843 167.522 48.0139 170.651 48.0139H175.726V43.2413H171.563C169.831 43.2413 168.616 42.8765 167.917 42.2077C167.218 41.5389 166.853 40.3534 166.853 38.7118Z" fill="#586FCC"/>
<path fill-rule="evenodd" clip-rule="evenodd" d="M224.341 33.1489H224.313C224.433 31.9739 224.492 30.8294 224.492 29.7746C224.492 26.6435 223.824 23.8772 222.487 21.4148C221.15 18.9525 219.236 17.007 216.744 15.6086C214.253 14.2103 211.488 13.5111 208.176 13.5111C204.864 13.5111 201.947 14.2103 199.395 15.639C196.843 17.0678 194.868 19.1045 193.47 21.7492C192.072 24.3939 191.374 27.4642 191.374 30.9905C191.374 34.5168 192.072 37.5871 193.531 40.2622C194.989 42.9373 196.964 44.9741 199.517 46.4332C202.069 47.862 204.955 48.5915 208.176 48.5915C212.248 48.5915 215.62 47.558 218.355 45.5212C221.089 43.4845 222.912 40.8398 223.824 37.5567H217.747C217.109 39.4718 215.954 40.9918 214.314 42.1166C212.673 43.2413 210.637 43.8189 208.206 43.8189C205.229 43.8189 202.707 42.8765 200.61 40.9918C198.544 39.1071 197.39 36.4927 197.177 33.1489H224.313L224.31 33.1793L224.341 33.1489ZM217.261 22.9956C216.319 21.4452 215.013 20.2597 213.372 19.4693C211.731 18.6789 209.938 18.2534 207.933 18.2534C205.077 18.2534 202.646 19.1653 200.641 20.9893C198.635 22.8132 197.481 25.3363 197.207 28.5586H218.659C218.659 26.4003 218.173 24.5459 217.231 22.9956H217.261Z" fill="#586FCC"/>
<path d="M259.313 27.981C259.313 23.2692 258.006 19.6517 255.454 17.159H255.424C252.841 14.6359 249.499 13.3895 245.366 13.3895C243.057 13.3895 240.93 13.8759 239.016 14.8183C237.102 15.791 235.583 17.1286 234.458 18.8613V14.0279H228.807V48.014H234.458V29.197C234.458 25.6403 235.34 22.9348 237.102 21.0805C238.864 19.2261 241.265 18.2838 244.212 18.2838C247.159 18.2838 249.468 19.1957 251.17 20.9893C252.871 22.7828 253.722 25.3667 253.722 28.7714V48.014H259.313V27.981Z" fill="#586FCC"/>
<path fill-rule="evenodd" clip-rule="evenodd" d="M265.39 21.7492C266.787 19.1349 268.732 17.0982 271.193 15.639C273.654 14.1799 276.389 13.4807 279.427 13.4807C282.466 13.4807 284.988 14.1191 287.175 15.3958C289.363 16.6726 291.004 18.2838 292.067 20.2293V14.0279H297.779V48.0444H292.067V41.7214C290.943 43.6973 289.272 45.3389 287.084 46.646C284.866 47.9532 282.283 48.5915 279.366 48.5915C276.45 48.5915 273.624 47.8316 271.193 46.342C268.762 44.8525 266.818 42.7549 265.42 40.0798C264.022 37.4047 263.324 34.3344 263.324 30.8993C263.324 27.4642 264.022 24.3636 265.42 21.7492H265.39ZM290.518 24.2724C289.484 22.3572 288.087 20.8981 286.324 19.8949C284.562 18.8917 282.648 18.375 280.521 18.375C278.394 18.375 276.48 18.8613 274.748 19.8645C273.016 20.8677 271.618 22.2964 270.585 24.2116C269.552 26.1267 269.036 28.3458 269.036 30.8993C269.036 33.4529 269.552 35.7632 270.585 37.7087C271.618 39.6238 273.016 41.1134 274.748 42.1166C276.48 43.1197 278.394 43.6365 280.521 43.6365C282.648 43.6365 284.562 43.1197 286.324 42.1166C288.087 41.1134 289.484 39.6238 290.518 37.7087C291.551 35.7936 292.067 33.544 292.067 30.9905C292.067 28.437 291.551 26.1875 290.518 24.3028V24.2724Z" fill="#586FCC"/>
<path fill-rule="evenodd" clip-rule="evenodd" d="M321.206 13.4807C318.35 13.4807 315.828 14.1191 313.579 15.3958H313.549C311.331 16.6726 309.629 18.3141 308.475 20.3508V2.11145H302.823V48.0443H308.475V41.7821C309.569 43.7581 311.24 45.3996 313.458 46.6764C315.676 47.9531 318.137 48.5915 321.175 48.5915C324.214 48.5915 326.948 47.8315 329.409 46.342C331.871 44.8524 333.815 42.7549 335.213 40.0798C336.611 37.4047 337.309 34.3648 337.309 30.8993C337.309 27.4338 336.611 24.3635 335.213 21.7492C333.815 19.1349 331.871 17.0982 329.44 15.639C327.009 14.2102 324.275 13.4807 321.206 13.4807ZM325.824 19.8645C327.586 20.8676 328.984 22.2964 330.017 24.2115V24.1811C331.05 26.0659 331.567 28.2546 331.567 30.8689C331.567 33.4832 331.05 35.7631 330.017 37.6783C328.984 39.5934 327.586 41.083 325.824 42.0861C324.062 43.0893 322.087 43.6061 320.021 43.6061C317.955 43.6061 316.04 43.0893 314.278 42.0861C312.516 41.083 311.118 39.5934 310.055 37.6783C308.991 35.7631 308.475 33.4832 308.475 30.9601C308.475 28.437 308.991 26.2178 310.055 24.3027C311.118 22.3876 312.516 20.898 314.278 19.8949C316.04 18.8917 317.894 18.3749 320.021 18.3749C322.148 18.3749 324.062 18.8613 325.824 19.8645Z" fill="#586FCC"/>
<path d="M347.367 2.11145V48.0443H341.715V2.11145H347.367Z" fill="#586FCC"/>
<path d="M384.742 33.1489H384.77L384.739 33.1793C384.74 33.1691 384.741 33.159 384.742 33.1489Z" fill="#586FCC"/>
<path fill-rule="evenodd" clip-rule="evenodd" d="M357.606 33.1489H384.742C384.862 31.9739 384.922 30.8294 384.922 29.7746C384.922 26.6435 384.253 23.8772 382.916 21.4148C381.579 18.9525 379.665 17.007 377.174 15.6086C374.682 14.2103 371.917 13.5111 368.605 13.5111C365.293 13.5111 362.376 14.2103 359.824 15.639C357.272 17.0678 355.297 19.1045 353.899 21.7492C352.502 24.3939 351.803 27.4642 351.803 30.9905C351.803 34.5168 352.502 37.5871 353.96 40.2622C355.418 42.9373 357.393 44.9741 359.946 46.4332C362.498 47.862 365.384 48.5915 368.605 48.5915C372.677 48.5915 376.049 47.558 378.784 45.5212C381.519 43.4845 383.342 40.8398 384.253 37.5567H378.176C377.538 39.4718 376.384 40.9918 374.743 42.1166C373.102 43.2413 371.066 43.8189 368.636 43.8189C365.658 43.8189 363.106 42.8765 361.04 40.9918C358.973 39.1071 357.819 36.4927 357.606 33.1489ZM373.801 19.4693C375.442 20.2597 376.748 21.4452 377.69 22.9956H377.66C378.602 24.5459 379.088 26.4003 379.088 28.5586H357.636C357.91 25.3363 359.065 22.8132 361.07 20.9893C363.075 19.1653 365.506 18.2534 368.362 18.2534C370.367 18.2534 372.16 18.6789 373.801 19.4693Z" fill="#586FCC"/>
<path fill-rule="evenodd" clip-rule="evenodd" d="M21.5 5C15.5629 5 10.1879 7.40647 6.29719 11.2972L13.8986 18.8986C15.844 16.9532 18.5315 15.75 21.5 15.75C27.4371 15.75 32.25 20.5629 32.25 26.5C32.25 29.4685 31.0468 32.156 29.1014 34.1014L43 48L43 26.5C43 14.6259 33.3741 5 21.5 5Z" fill="#FFBA07"/>
<path fill-rule="evenodd" clip-rule="evenodd" d="M29.1014 34.1014L43 48L21.5 48C9.62588 48 0 38.3741 0 26.5C0 20.5629 2.40647 15.1879 6.29721 11.2972L13.8986 18.8986C11.9532 20.844 10.75 23.5315 10.75 26.5C10.75 32.4371 15.5629 37.25 21.5 37.25C24.4685 37.25 27.156 36.0468 29.1014 34.1014ZM21.5 5L21.5205 5.00001H21.4795L21.5 5Z" fill="#E6A706"/>
</svg>
